<svg id="visual" viewBox="0 0 960 540" width="960" height="540" xmlns="http://www.w3.org/2000/svg" xmlns:xlink="http://www.w3.org/1999/xlink" version="1.1"><rect x="0" y="0" width="960" height="540" fill="#00b98d"></rect><path d="M0 355L22.8 363.2C45.7 371.3 91.3 387.7 137 395C182.7 402.3 228.3 400.7 274 392.2C319.7 383.7 365.3 368.3 411.2 375.5C457 382.7 503 412.3 548.8 416.3C594.7 420.3 640.3 398.7 686 387.3C731.7 376 777.3 375 823 375C868.7 375 914.3 376 937.2 376.5L960 377L960 541L937.2 541C914.3 541 868.7 541 823 541C777.3 541 731.7 541 686 541C640.3 541 594.7 541 548.8 541C503 541 457 541 411.2 541C365.3 541 319.7 541 274 541C228.3 541 182.7 541 137 541C91.3 541 45.7 541 22.8 541L0 541Z" fill="#585c9e" stroke-linecap="round" stroke-linejoin="miter"></path></svg>